<?xml version="1.0" encoding="UTF-8" standalone="no"?> <svg id="Layer_1" data-name="Layer 1" xmlns="http://www.w3.org/2000/svg" viewBox="0 0 128 128"><defs><style>.cls-1{fill:#2d3e50;}.cls-2{fill:#2e79bd;}</style></defs><title>x</title><path class="cls-1" d="M106.33178,60.13754c-.09773.228-.19546.45243-.2968.67321-5.3427,11.69855-15.8564,27.34862-20.37123,38.18542a3.675,3.675,0,0,1-3.39653,2.25457H45.73407a3.675,3.675,0,0,1-3.39653-2.25457C37.82271,88.15937,27.309,72.5093,21.96631,60.81075c-.10133-.22078-.20269-.44518-.3004-.67321a39.05154,39.05154,0,0,1-2.501-22.2921,33.97006,33.97006,0,0,1,1.10755-4.68718A45.70183,45.70183,0,0,1,63.09036,1.966h.36194c.181,0,.36557.00362.54654.00722.18459-.0036.36557-.00722.55016-.00722h.36194a45.70536,45.70536,0,0,1,42.81794,31.19231,34.54418,34.54418,0,0,1,1.10392,4.68718A38.99043,38.99043,0,0,1,106.33178,60.13754Z"/><path class="cls-2" d="M82.68,106.02749H45.32a1.66721,1.66721,0,0,0-1.63829,1.97642l1.78159,9.43936a1.66721,1.66721,0,0,0,1.63829,1.358H51.357a14.66651,14.66651,0,0,0,25.286,0h4.25535a1.66721,1.66721,0,0,0,1.63829-1.358l1.78159-9.43936A1.66721,1.66721,0,0,0,82.68,106.02749Z"/></svg>