<?xml version="1.0" encoding="utf-8"?>
<!-- Generator: Adobe Illustrator 24.0.0, SVG Export Plug-In . SVG Version: 6.00 Build 0)  -->
<svg version="1.1" xmlns="http://www.w3.org/2000/svg" xmlns:xlink="http://www.w3.org/1999/xlink" x="0px" y="0px"
	 viewBox="0 0 256 256" enable-background="new 0 0 256 256" xml:space="preserve">
<g id="Layer_2" display="none">
	<rect x="-1436" y="-792" display="inline" fill="#FFFFFF" width="1786" height="5896"/>
</g>
<g id="Layer_1">
	<g>
		<path fill="#13BF6D" d="M248,41.086v182c0,2.761-2.239,5-5,5H13c-2.761,0-5-2.239-5-5v-182c0-2.761,2.239-5,5-5h67v11
			c0,2.761,2.239,5,5,5h86c2.761,0,5-2.239,5-5v-11h67C245.761,36.086,248,38.325,248,41.086z"/>
		<path fill="#EFEFEF" d="M237,219.586H33c-1.381,0-2.5-1.119-2.5-2.5s1.119-2.5,2.5-2.5h201.5v-167.5c0-1.381,1.119-2.5,2.5-2.5
			s2.5,1.119,2.5,2.5v170C239.5,218.467,238.381,219.586,237,219.586z M23,219.586h-4c-1.381,0-2.5-1.119-2.5-2.5s1.119-2.5,2.5-2.5
			h4c1.381,0,2.5,1.119,2.5,2.5S24.381,219.586,23,219.586z"/>
		<path fill="#7D7B79" d="M219,140.086h-54c-2.761,0-5-2.239-5-5v-22c0-2.761,2.239-5,5-5h54c2.761,0,5,2.239,5,5v22
			C224,137.848,221.761,140.086,219,140.086z"/>
		<path fill="#EFEFEF" d="M216,134.586h-34c-1.381,0-2.5-1.119-2.5-2.5s1.119-2.5,2.5-2.5h31.5v-13.5c0-1.381,1.119-2.5,2.5-2.5
			s2.5,1.119,2.5,2.5v16C218.5,133.467,217.381,134.586,216,134.586z M172,134.586h-4c-1.381,0-2.5-1.119-2.5-2.5s1.119-2.5,2.5-2.5
			h4c1.381,0,2.5,1.119,2.5,2.5S173.381,134.586,172,134.586z"/>
		<path fill="#F0C020" d="M176,33.086v14c0,2.761-2.239,5-5,5H85c-2.761,0-5-2.239-5-5v-14c0-2.761,2.239-5,5-5h86
			C173.761,28.086,176,30.325,176,33.086z"/>
		<circle fill="#F0C020" cx="120" cy="124.086" r="8"/>
		<circle fill="#F0C020" cx="88" cy="196.086" r="8"/>
		<circle fill="#F0C020" cx="64" cy="172.086" r="8"/>
		<circle fill="#F0C020" cx="48" cy="68.086" r="8"/>
		<circle fill="#F0C020" cx="184" cy="172.086" r="8"/>
		<circle fill="#F0C020" cx="88" cy="92.086" r="8"/>
		<circle fill="#F0C020" cx="184" cy="76.086" r="8"/>
		<circle fill="#F0C020" cx="152" cy="196.086" r="8"/>
		<path fill="#F8E5B0" d="M168,46.586h-6c-1.381,0-2.5-1.119-2.5-2.5s1.119-2.5,2.5-2.5h6c1.381,0,2.5,1.119,2.5,2.5
			S169.381,46.586,168,46.586z M152,46.586H88c-1.381,0-2.5-1.119-2.5-2.5s1.119-2.5,2.5-2.5h64c1.381,0,2.5,1.119,2.5,2.5
			S153.381,46.586,152,46.586z"/>
		<g>
			<path d="M243,33.586h-64.5v-0.5c0-4.13-3.37-7.5-7.5-7.5H85c-4.13,0-7.5,3.37-7.5,7.5v0.5H13c-4.141,0-7.5,3.37-7.5,7.5v94.57
				c0,1.38,1.12,2.5,2.5,2.5s2.5-1.12,2.5-2.5v-9.07h35v21.5c0,1.381,1.119,2.5,2.5,2.5h37.5V185.9
				c-3.782,0.929-6.758,3.905-7.687,7.687H10.5v-19h43.313c1.126,4.584,5.26,8,10.187,8c5.79,0,10.5-4.71,10.5-10.5
				s-4.71-10.5-10.5-10.5c-4.927,0-9.061,3.416-10.187,8H10.5v-13.93c0-1.38-1.12-2.5-2.5-2.5s-2.5,1.12-2.5,2.5v67.43
				c0,4.13,3.359,7.5,7.5,7.5h230c4.13,0,7.5-3.37,7.5-7.5v-182C250.5,36.956,247.13,33.586,243,33.586z M64,166.586
				c3.032,0,5.5,2.467,5.5,5.5s-2.468,5.5-5.5,5.5s-5.5-2.467-5.5-5.5S60.968,166.586,64,166.586z M45.5,121.586h-35v-19h35V121.586
				z M42.5,68.086c0-3.033,2.468-5.5,5.5-5.5s5.5,2.467,5.5,5.5s-2.468,5.5-5.5,5.5S42.5,71.119,42.5,68.086z M50.5,145.586V78.273
				c4.585-1.126,8-5.26,8-10.187c0-5.79-4.71-10.5-10.5-10.5s-10.5,4.71-10.5,10.5c0,4.927,3.415,9.061,8,10.187v19.313h-35v-56.5
				c0-1.38,1.12-2.5,2.5-2.5h64.5v8.5c0,4.13,3.37,7.5,7.5,7.5h0.859c1.37,0,2.5-1.12,2.5-2.5s-1.13-2.5-2.5-2.5H85
				c-1.38,0-2.5-1.12-2.5-2.5v-14c0-1.38,1.12-2.5,2.5-2.5h8.5v5.5c0,1.381,1.119,2.5,2.5,2.5s2.5-1.119,2.5-2.5v-5.5h11v5.5
				c0,1.381,1.119,2.5,2.5,2.5s2.5-1.119,2.5-2.5v-5.5h11v5.5c0,1.381,1.119,2.5,2.5,2.5s2.5-1.119,2.5-2.5v-5.5h11v5.5
				c0,1.381,1.119,2.5,2.5,2.5s2.5-1.119,2.5-2.5v-5.5h11v5.5c0,1.381,1.119,2.5,2.5,2.5s2.5-1.119,2.5-2.5v-5.5h8.5
				c1.38,0,2.5,1.12,2.5,2.5v14c0,1.38-1.12,2.5-2.5,2.5h-65.141c-1.38,0-2.5,1.12-2.5,2.5s1.12,2.5,2.5,2.5h3.641v35H98.187
				c-1.126-4.584-5.26-8-10.187-8c-5.79,0-10.5,4.71-10.5,10.5c0,4.927,3.415,9.061,8,10.187v43.313H50.5z M93.5,92.086
				c0,3.033-2.468,5.5-5.5,5.5s-5.5-2.467-5.5-5.5s2.468-5.5,5.5-5.5S93.5,89.054,93.5,92.086z M85.5,225.586H13
				c-1.38,0-2.5-1.12-2.5-2.5v-24.5h67.313c0.929,3.782,3.905,6.758,7.687,7.687V225.586z M82.5,196.086c0-3.033,2.468-5.5,5.5-5.5
				s5.5,2.467,5.5,5.5s-2.468,5.5-5.5,5.5S82.5,199.119,82.5,196.086z M117.5,225.586h-27v-19.313c4.585-1.126,8-5.26,8-10.187
				s-3.415-9.061-8-10.187v-83.627c3.782-0.929,6.758-3.905,7.687-7.687H112c1.381,0,2.5-1.119,2.5-2.5v-37.5h27v67h-11.313
				c-1.126-4.584-5.26-8-10.187-8c-5.79,0-10.5,4.71-10.5,10.5c0,4.927,3.415,9.061,8,10.187V225.586z M114.5,124.086
				c0-3.033,2.468-5.5,5.5-5.5s5.5,2.467,5.5,5.5s-2.468,5.5-5.5,5.5S114.5,127.119,114.5,124.086z M245.5,178.746l-22.26,14.84
				h-10.4c-1.37,0-2.5,1.12-2.5,2.5c0,1.38,1.13,2.5,2.5,2.5H224c0.5,0,0.96-0.14,1.39-0.42l20.11-13.412v38.332
				c0,1.38-1.13,2.5-2.5,2.5H122.5v-36.465l14.535-14.535h36.778c1.126,4.584,5.26,8,10.187,8c5.79,0,10.5-4.71,10.5-10.5
				s-4.71-10.5-10.5-10.5c-4.927,0-9.061,3.416-10.187,8H136c-0.663,0-1.299,0.263-1.768,0.732L122.5,182.051v-47.778
				c3.782-0.929,6.758-3.905,7.687-7.687H157.5v8.5c0,4.136,3.364,7.5,7.5,7.5h0.5v5.5c0,1.381,1.119,2.5,2.5,2.5s2.5-1.119,2.5-2.5
				v-5.5h11v5.5c0,1.381,1.119,2.5,2.5,2.5s2.5-1.119,2.5-2.5v-5.5h11v5.5c0,1.381,1.119,2.5,2.5,2.5s2.5-1.119,2.5-2.5v-5.5h11v5.5
				c0,1.381,1.119,2.5,2.5,2.5s2.5-1.119,2.5-2.5v-5.5h0.5c4.136,0,7.5-3.364,7.5-7.5v-8.5h19V178.746z M178.5,172.086
				c0-3.033,2.468-5.5,5.5-5.5s5.5,2.467,5.5,5.5s-2.468,5.5-5.5,5.5S178.5,175.119,178.5,172.086z M162.5,135.086v-22
				c0-1.378,1.121-2.5,2.5-2.5h54c1.379,0,2.5,1.122,2.5,2.5v22c0,1.378-1.121,2.5-2.5,2.5h-54
				C163.621,137.586,162.5,136.465,162.5,135.086z M245.5,73.586h-51.313c-1.126-4.584-5.26-8-10.187-8c-5.79,0-10.5,4.71-10.5,10.5
				s4.71,10.5,10.5,10.5c4.927,0,9.061-3.416,10.187-8H245.5v43h-19v-8.5c0-4.136-3.364-7.5-7.5-7.5h-0.5v-5.5
				c0-1.381-1.119-2.5-2.5-2.5s-2.5,1.119-2.5,2.5v5.5h-11v-5.5c0-1.381-1.119-2.5-2.5-2.5s-2.5,1.119-2.5,2.5v5.5h-11v-5.5
				c0-1.381-1.119-2.5-2.5-2.5s-2.5,1.119-2.5,2.5v5.5h-11v-5.5c0-1.381-1.119-2.5-2.5-2.5s-2.5,1.119-2.5,2.5v5.5H165
				c-4.136,0-7.5,3.364-7.5,7.5v8.5h-11v-67H171c4.13,0,7.5-3.37,7.5-7.5v-8.5H243c1.37,0,2.5,1.12,2.5,2.5V73.586z M189.5,76.086
				c0,3.033-2.468,5.5-5.5,5.5s-5.5-2.467-5.5-5.5s2.468-5.5,5.5-5.5S189.5,73.054,189.5,76.086z"/>
			<circle cx="8" cy="145.656" r="2.5"/>
			<circle cx="202.84" cy="196.086" r="2.5"/>
			<path d="M192.84,193.586h-30.653c-1.126-4.584-5.26-8-10.187-8c-5.79,0-10.5,4.71-10.5,10.5s4.71,10.5,10.5,10.5
				c4.927,0,9.061-3.416,10.187-8h30.653c1.38,0,2.5-1.12,2.5-2.5C195.34,194.706,194.22,193.586,192.84,193.586z M152,201.586
				c-3.032,0-5.5-2.467-5.5-5.5s2.468-5.5,5.5-5.5s5.5,2.467,5.5,5.5S155.032,201.586,152,201.586z"/>
			<path d="M176,126.586h32c1.381,0,2.5-1.119,2.5-2.5s-1.119-2.5-2.5-2.5h-32c-1.381,0-2.5,1.119-2.5,2.5
				S174.619,126.586,176,126.586z"/>
			<circle cx="95.859" cy="52.086" r="2.5"/>
		</g>
	</g>
</g>
</svg>
