<?xml version="1.0" encoding="UTF-8"?>
<!DOCTYPE svg PUBLIC "-//W3C//DTD SVG 1.1//EN" "http://www.w3.org/Graphics/SVG/1.1/DTD/svg11.dtd">
<!-- Creator: CorelDRAW -->
<svg xmlns="http://www.w3.org/2000/svg" xml:space="preserve" width="7.33333in" height="7.33333in" style="shape-rendering:geometricPrecision; text-rendering:geometricPrecision; image-rendering:optimizeQuality; fill-rule:evenodd; clip-rule:evenodd"
viewBox="0 0 7.33333 7.33333"
 xmlns:xlink="http://www.w3.org/1999/xlink">
 <defs>
  <style type="text/css">
   <![CDATA[
    .fil5 {fill:url(#id0)}
    .fil0 {fill:url(#id1);fill-rule:nonzero}
    .fil4 {fill:url(#id2);fill-rule:nonzero}
    .fil3 {fill:url(#id3);fill-rule:nonzero}
    .fil2 {fill:url(#id4);fill-rule:nonzero}
    .fil1 {fill:url(#id5);fill-rule:nonzero}
   ]]>
  </style>
  <linearGradient id="id0" gradientUnits="userSpaceOnUse" x1="-3.93701e-006" y1="3.66667" x2="7.33333" y2="3.66667">
   <stop offset="0" style="stop-color:#E4877C"/>
   <stop offset="1" style="stop-color:#B03686"/>
  </linearGradient>
  <linearGradient id="id1" gradientUnits="userSpaceOnUse" xlink:href="#id0" x1="1.09333" y1="2.43733" x2="1.77361" y2="2.43733">
  </linearGradient>
  <linearGradient id="id2" gradientUnits="userSpaceOnUse" xlink:href="#id0" x1="1.94376" y1="2.20722" x2="2.4773" y2="2.20722">
  </linearGradient>
  <linearGradient id="id3" gradientUnits="userSpaceOnUse" xlink:href="#id0" x1="1.65026" y1="3.65467" x2="5.70571" y2="3.65467">
  </linearGradient>
  <linearGradient id="id4" gradientUnits="userSpaceOnUse" xlink:href="#id0" x1="2.32399" y1="1.44681" x2="2.48399" y2="1.44681">
  </linearGradient>
  <linearGradient id="id5" gradientUnits="userSpaceOnUse" xlink:href="#id0" x1="2.32399" y1="5.88652" x2="2.48399" y2="5.88652">
  </linearGradient>
 </defs>
 <g id="Layer_x0020_1">
  <metadata id="CorelCorpID_0Corel-Layer"/>
  <path class="fil0" d="M1.69361 2.51733c0.0441811,0 0.08,-0.0358189 0.08,-0.08 0,-0.0441811 -0.0358189,-0.08 -0.08,-0.08l-0.52028 0c-0.0441811,0 -0.08,0.0358189 -0.08,0.08 0,0.0441811 0.0358189,0.08 0.08,0.08l0.52028 0z"/>
  <path class="fil0" d="M1.69361 3.12433c0.0441811,0 0.08,-0.0358189 0.08,-0.08 0,-0.0441811 -0.0358189,-0.08 -0.08,-0.08l-0.52028 0c-0.0441811,0 -0.08,0.0358189 -0.08,0.08 0,0.0441811 0.0358189,0.08 0.08,0.08l0.52028 0z"/>
  <path class="fil0" d="M1.69361 3.73133c0.0441811,0 0.08,-0.0358189 0.08,-0.08 0,-0.0441811 -0.0358189,-0.08 -0.08,-0.08l-0.52028 0c-0.0441811,0 -0.08,0.0358189 -0.08,0.08 0,0.0441811 0.0358189,0.08 0.08,0.08l0.52028 0z"/>
  <path class="fil0" d="M1.69361 4.33833c0.0441811,0 0.08,-0.0358189 0.08,-0.08 0,-0.0441811 -0.0358189,-0.08 -0.08,-0.08l-0.52028 0c-0.0441811,0 -0.08,0.0358189 -0.08,0.08 0,0.0441811 0.0358189,0.08 0.08,0.08l0.52028 0z"/>
  <path class="fil0" d="M1.69361 4.94534c0.0441811,0 0.08,-0.0358189 0.08,-0.08 0,-0.0441811 -0.0358189,-0.08 -0.08,-0.08l-0.52028 0c-0.0441811,0 -0.08,0.0358189 -0.08,0.08 0,0.0441811 0.0358189,0.08 0.08,0.08l0.52028 0z"/>
  <path class="fil1" d="M2.48399 5.62639c0,-0.0441811 -0.0358189,-0.08 -0.08,-0.08 -0.0441811,0 -0.08,0.0358189 -0.08,0.08l0 0.52028c0,0.0441811 0.0358189,0.08 0.08,0.08 0.0441811,0 0.08,-0.0358189 0.08,-0.08l0 -0.52028z"/>
  <path class="fil1" d="M3.09099 5.62639c0,-0.0441811 -0.0358189,-0.08 -0.08,-0.08 -0.0441811,0 -0.08,0.0358189 -0.08,0.08l0 0.52028c0,0.0441811 0.0358189,0.08 0.08,0.08 0.0441811,0 0.08,-0.0358189 0.08,-0.08l0 -0.52028z"/>
  <path class="fil1" d="M3.69799 5.62639c0,-0.0441811 -0.0358189,-0.08 -0.08,-0.08 -0.0441811,0 -0.08,0.0358189 -0.08,0.08l0 0.52028c0,0.0441811 0.0358189,0.08 0.08,0.08 0.0441811,0 0.08,-0.0358189 0.08,-0.08l0 -0.52028z"/>
  <path class="fil1" d="M4.305 5.62639c0,-0.0441811 -0.0358189,-0.08 -0.08,-0.08 -0.0441811,0 -0.08,0.0358189 -0.08,0.08l0 0.52028c0,0.0441811 0.0358189,0.08 0.08,0.08 0.0441811,0 0.08,-0.0358189 0.08,-0.08l0 -0.52028z"/>
  <path class="fil1" d="M4.912 5.62639c0,-0.0441811 -0.0358189,-0.08 -0.08,-0.08 -0.0441811,0 -0.08,0.0358189 -0.08,0.08l0 0.52028c0,0.0441811 0.0358189,0.08 0.08,0.08 0.0441811,0 0.08,-0.0358189 0.08,-0.08l0 -0.52028z"/>
  <path class="fil0" d="M6.16 2.51733c0.0441811,0 0.08,-0.0358189 0.08,-0.08 0,-0.0441811 -0.0358189,-0.08 -0.08,-0.08l-0.52028 0c-0.0441811,0 -0.08,0.0358189 -0.08,0.08 0,0.0441811 0.0358189,0.08 0.08,0.08l0.52028 0z"/>
  <path class="fil0" d="M6.16 3.12433c0.0441811,0 0.08,-0.0358189 0.08,-0.08 0,-0.0441811 -0.0358189,-0.08 -0.08,-0.08l-0.52028 0c-0.0441811,0 -0.08,0.0358189 -0.08,0.08 0,0.0441811 0.0358189,0.08 0.08,0.08l0.52028 0z"/>
  <path class="fil0" d="M6.16 3.73133c0.0441811,0 0.08,-0.0358189 0.08,-0.08 0,-0.0441811 -0.0358189,-0.08 -0.08,-0.08l-0.52028 0c-0.0441811,0 -0.08,0.0358189 -0.08,0.08 0,0.0441811 0.0358189,0.08 0.08,0.08l0.52028 0z"/>
  <path class="fil0" d="M6.16 4.33833c0.0441811,0 0.08,-0.0358189 0.08,-0.08 0,-0.0441811 -0.0358189,-0.08 -0.08,-0.08l-0.52028 0c-0.0441811,0 -0.08,0.0358189 -0.08,0.08 0,0.0441811 0.0358189,0.08 0.08,0.08l0.52028 0z"/>
  <path class="fil0" d="M6.16 4.94534c0.0441811,0 0.08,-0.0358189 0.08,-0.08 0,-0.0441811 -0.0358189,-0.08 -0.08,-0.08l-0.52028 0c-0.0441811,0 -0.08,0.0358189 -0.08,0.08 0,0.0441811 0.0358189,0.08 0.08,0.08l0.52028 0z"/>
  <path class="fil2" d="M2.48399 1.18667c0,-0.0441811 -0.0358189,-0.08 -0.08,-0.08 -0.0441811,0 -0.08,0.0358189 -0.08,0.08l0 0.520283c0,0.0441811 0.0358189,0.08 0.08,0.08 0.0441811,0 0.08,-0.0358189 0.08,-0.08l0 -0.520283z"/>
  <path class="fil2" d="M3.09099 1.18667c0,-0.0441811 -0.0358189,-0.08 -0.08,-0.08 -0.0441811,0 -0.08,0.0358189 -0.08,0.08l0 0.520283c0,0.0441811 0.0358189,0.08 0.08,0.08 0.0441811,0 0.08,-0.0358189 0.08,-0.08l0 -0.520283z"/>
  <path class="fil2" d="M3.69799 1.18667c0,-0.0441811 -0.0358189,-0.08 -0.08,-0.08 -0.0441811,0 -0.08,0.0358189 -0.08,0.08l0 0.520283c0,0.0441811 0.0358189,0.08 0.08,0.08 0.0441811,0 0.08,-0.0358189 0.08,-0.08l0 -0.520283z"/>
  <path class="fil2" d="M4.305 1.18667c0,-0.0441811 -0.0358189,-0.08 -0.08,-0.08 -0.0441811,0 -0.08,0.0358189 -0.08,0.08l0 0.520283c0,0.0441811 0.0358189,0.08 0.08,0.08 0.0441811,0 0.08,-0.0358189 0.08,-0.08l0 -0.520283z"/>
  <path class="fil2" d="M4.912 1.18667c0,-0.0441811 -0.0358189,-0.08 -0.08,-0.08 -0.0441811,0 -0.08,0.0358189 -0.08,0.08l0 0.520283c0,0.0441811 0.0358189,0.08 0.08,0.08 0.0441811,0 0.08,-0.0358189 0.08,-0.08l0 -0.520283z"/>
  <path class="fil3" d="M1.86687 1.62695l3.62223 0 0.033126 0 0.023437 0.023437 0.136606 0.136606 0.023437 0.023437 0 0.033126 0 3.62223 0 0.033126 -0.023437 0.023437 -0.136606 0.136606 -0.023437 0.023437 -0.033126 0 -3.62223 0 -0.033126 0 -0.023437 -0.023437 -0.136606 -0.136606 -0.023437 -0.023437 0 -0.033126 0 -3.62223 0 -0.033126 0.023437 -0.023437 0.136606 -0.136606 0.023437 -0.023437 0.033126 0zm3.58911 0.16l-3.55598 0 -0.0897323 0.0897323 0 3.55598 0.0897323 0.0897323 3.55598 0 0.0897323 -0.0897323 0 -3.55598 -0.0897323 -0.0897323z"/>
  <path class="fil4" d="M2.21053 1.94045c0.0736575,0 0.140354,0.0298661 0.188626,0.0781378 0.0482756,0.0482756 0.0781417,0.114972 0.0781417,0.18863 0,0.0736575 -0.0298661,0.140354 -0.0781417,0.188626 -0.0482717,0.0482756 -0.114969,0.0781417 -0.188626,0.0781417 -0.0736575,0 -0.140354,-0.0298661 -0.18863,-0.0781417 -0.0482717,-0.0482717 -0.0781378,-0.114969 -0.0781378,-0.188626 0,-0.0736535 0.0298661,-0.140354 0.0781378,-0.18863 0.0482756,-0.0482717 0.114976,-0.0781378 0.18863,-0.0781378zm0.0755 0.191264c-0.019311,-0.019311 -0.0460118,-0.0312638 -0.0755,-0.0312638 -0.0294921,0 -0.056189,0.0119528 -0.0755039,0.0312638 -0.019311,0.019315 -0.0312638,0.0460118 -0.0312638,0.0755039 0,0.0294882 0.0119528,0.056189 0.0312638,0.0755 0.019315,0.019315 0.0460157,0.0312677 0.0755039,0.0312677 0.0294882,0 0.056185,-0.0119528 0.0755,-0.0312677 0.019315,-0.019315 0.0312677,-0.0460118 0.0312677,-0.0755 0,-0.0294882 -0.0119528,-0.056189 -0.0312677,-0.0755039z"/>
  <path class="fil5" d="M1.28486 0l4.76361 0c0.706677,0 1.28486,0.578185 1.28486,1.28486l0 4.76361c0,0.706677 -0.578185,1.28486 -1.28486,1.28486l-4.76361 0c-0.706677,0 -1.28486,-0.578185 -1.28486,-1.28486l0 -4.76361c0,-0.706677 0.578185,-1.28486 1.28486,-1.28486zm3.93701e-006 0.321209l4.76361 0c0.530008,0 0.96365,0.433642 0.96365,0.96365l0 4.76361c0,0.530008 -0.433642,0.96365 -0.96365,0.96365l-4.76361 0c-0.530008,0 -0.96365,-0.433642 -0.96365,-0.96365l0 -4.76361c0,-0.530008 0.433642,-0.96365 0.96365,-0.96365z"/>
 </g>
</svg>
